<?xml version="1.0" encoding="utf-8"?>
<!DOCTYPE svg PUBLIC "-//W3C//DTD SVG 1.0//EN" "http://www.w3.org/TR/2001/REC-SVG-20010904/DTD/svg10.dtd">
<svg version="1.0" xmlns="http://www.w3.org/2000/svg" width="606px" height="99px" viewBox="0 0 606 99" preserveAspectRatio="xMidYMid meet">
 <g fill="#5f6870">
  <path d="M82.50 73.65 c-0.40 -0.15 -1.45 -0.95 -2.35 -1.80 -1.85 -1.75 -2.25 -3.15 -3.65 -13.60 -1.55 -11.15 -1.20 -10.25 -3.80 -10.25 l-2.20 0 0 -2.60 0 -2.65 11.45 -7.35 c8.80 -5.75 11.75 -7.40 13.05 -7.40 1.25 0 4.15 1.60 12.55 7 5.95 3.90 11.10 7.35 11.45 7.75 0.30 0.35 0.50 1.65 0.40 2.85 l-0.15 2.15 -2.25 0.15 -2.30 0.15 -1.45 10.25 c-1.50 11 -2.10 12.75 -4.75 14.60 -1.60 1.05 -2 1.10 -13.45 1.05 -6.50 0 -12.15 -0.15 -12.55 -0.30z m22.20 -7.20 c0.70 -0.85 1.30 -1.80 1.30 -2.10 0 -0.35 0.55 -4.55 1.25 -9.35 0.70 -4.80 1.25 -9.20 1.25 -9.80 0 -0.75 -1.65 -2.10 -6.75 -5.40 l-6.75 -4.40 -6.40 4.15 c-3.50 2.25 -6.65 4.35 -6.95 4.65 -0.50 0.45 -0.30 2.75 0.85 10.70 1.55 10.40 1.90 11.70 3.40 12.55 0.45 0.30 4.50 0.55 9.20 0.55 l8.30 0 1.30 -1.55z"/>
  <path d="M91 61.15 c-4.90 -1.85 -7.05 -8.85 -4.35 -14.15 1.60 -3.25 4.45 -4.65 8.95 -4.35 4.20 0.25 6.30 1.45 7.80 4.35 1 1.90 1.15 2.80 0.95 5.60 -0.25 4.20 -1.45 6.30 -4.35 7.80 -2.15 1.05 -7 1.50 -9 0.75z m5.85 -7.25 c1.45 -1.35 1.45 -2.25 0.05 -3.75 -1.35 -1.45 -2.25 -1.45 -3.75 -0.05 -1.45 1.35 -1.45 2.25 -0.05 3.75 1.35 1.45 2.25 1.45 3.75 0.05z"/>
  <path d="M250.05 70.80 l-3.15 -3.20 -2.60 1.35 c-2.40 1.20 -2.95 1.30 -9.55 1.30 -7.85 0 -9.85 -0.55 -14.10 -4.05 -4.85 -4 -7.15 -9.30 -7.15 -16.60 0 -7.45 1.75 -11.90 6.25 -16.05 3.60 -3.30 7.80 -5.05 13.10 -5.40 9.45 -0.60 17.10 3.35 20.90 10.85 3.15 6.20 2.95 15.60 -0.40 21.60 l-1 1.90 3.05 3.20 c2.45 2.55 3.10 3.55 3.10 4.80 0 2.65 -0.75 3.50 -3.15 3.50 -1.95 0 -2.40 -0.25 -5.30 -3.20z m-12 -7.10 c4.75 -1.40 9.15 -5.65 10.75 -10.45 2.90 -8.45 -4.90 -18.50 -14.30 -18.50 -2.65 0 -3.75 0.30 -5.90 1.50 -5.90 3.20 -9.70 9.95 -8.55 15.20 1.15 5.35 5.90 10.70 10.95 12.30 2.95 0.90 3.80 0.90 7.05 -0.05z"/>
  <path d="M369 73.45 c-2.40 -1 -4.40 -2.95 -5.30 -5.20 l-0.95 -2.25 -4.60 0 c-3.50 0 -4.75 -0.20 -5.35 -0.80 -1.30 -1.30 -0.95 -3.95 1.10 -7.80 1.85 -3.55 1.85 -3.65 2.10 -10.85 0.25 -6.80 0.35 -7.50 1.60 -9.60 3.90 -6.65 12.35 -10.25 19.95 -8.45 5.20 1.25 8.65 3.65 11.55 8.10 1.65 2.60 1.65 2.65 1.90 10.15 0.25 7.30 0.30 7.60 1.90 10.45 1.20 2.30 1.60 3.60 1.60 5.60 0 3.15 -0.10 3.20 -5.90 3.20 l-4.35 0 -1.15 2.50 c-1.70 3.75 -4.20 5.20 -9.05 5.35 -2.10 0.10 -4.35 -0.10 -5.05 -0.40z m6.30 -6.70 c0.85 -0.65 0.75 -0.70 -1.80 -0.70 -2.55 0 -2.65 0.05 -1.80 0.70 0.55 0.40 1.35 0.75 1.80 0.75 0.45 0 1.25 -0.35 1.80 -0.75z m10.45 -7.85 c-0.20 -0.65 -0.50 -4.40 -0.70 -8.40 -0.30 -6.65 -0.45 -7.40 -1.65 -9.30 -2.30 -3.55 -6.90 -6.70 -9.80 -6.70 -2.25 0 -4.90 1.30 -7.40 3.60 -3.60 3.30 -3.90 4.20 -4.25 12.40 -0.15 4 -0.50 7.75 -0.70 8.40 l-0.35 1.10 12.60 0 12.60 0 -0.35 -1.10z"/>
  <path d="M493.30 72 c-0.75 -0.25 -1.85 -0.85 -2.40 -1.35 -2.25 -2 -2.40 -3.25 -2.40 -19.75 0 -17.20 0.10 -17.85 3.15 -20.10 1.35 -1 2.05 -1.05 20 -1.05 17.35 0 18.70 0.05 20.15 0.95 3.20 1.90 3.20 2 3.20 20.30 0 18.05 0 18.05 -2.90 20.25 -1.30 0.95 -2.20 1 -19.35 1.10 -9.90 0.05 -18.65 -0.10 -19.45 -0.35z m34.45 -6.60 l1.30 -1.15 -0.15 -8.90 -0.15 -8.85 -7.15 4.55 c-9.05 5.75 -9.70 5.90 -14.70 2.95 -2 -1.20 -5.30 -3.25 -7.30 -4.60 -5.55 -3.75 -5.10 -4.25 -5.10 5.25 0 8.70 0.30 10.35 2.20 11.25 0.65 0.35 6.60 0.55 15.40 0.55 14.20 0.05 14.35 0.05 15.65 -1.05z m-7.10 -22.15 c4.30 -2.75 7.85 -5.25 7.85 -5.60 0 -0.30 -0.50 -0.95 -1.10 -1.35 -0.95 -0.70 -3.30 -0.80 -15.65 -0.80 -13.95 0 -14.60 0.05 -15.65 1 -0.60 0.60 -1.10 1.20 -1.10 1.40 0.05 0.60 16.20 10.60 17 10.45 0.40 -0.05 4.30 -2.35 8.65 -5.10z"/>
 </g>
 <g fill="#ffffff">
  <path d="M0 49.50 l0 -49.50 303 0 303 0 0 49.50 0 49.50 -303 0 -303 0 0 -49.50z m106.50 22.25 c3 -1.55 3.50 -3 5.30 -15.20 0.95 -6.20 1.70 -11.35 1.70 -11.45 0 -0.10 0.50 0.20 1.10 0.60 2.15 1.50 4.40 0.35 2.90 -1.45 -0.30 -0.40 -5.50 -3.90 -11.55 -7.80 l-10.95 -7.05 -11.50 7.45 c-9.35 6.05 -11.50 7.60 -11.50 8.55 0 1.25 1.40 1.50 3 0.50 0.50 -0.35 1.05 -0.50 1.20 -0.40 0.10 0.15 0.80 4.40 1.50 9.50 1.75 12.40 2.05 13.55 3.95 15.35 0.90 0.85 1.95 1.65 2.35 1.80 0.40 0.15 5.30 0.30 10.90 0.30 8.05 0.05 10.45 -0.10 11.60 -0.70z m150 -0.30 c0.50 -0.90 0.10 -1.45 -3.25 -4.95 l-3.85 -3.90 1.55 -2.15 c1.80 -2.45 3.55 -7.65 3.55 -10.50 0 -9.45 -6.20 -17.35 -15.45 -19.75 -6.10 -1.55 -12.85 0.30 -17.80 4.85 -10.35 9.55 -7.40 26.75 5.55 32.55 3.40 1.50 10.20 1.85 13.75 0.70 1.40 -0.50 3.45 -1.45 4.55 -2.15 l2.05 -1.25 3.80 3.80 c2.10 2.10 4.05 3.80 4.40 3.80 0.35 0 0.85 -0.45 1.15 -1.05z m121.95 -0.60 c1.30 -0.90 2.35 -2.15 3.15 -3.85 l1.15 -2.50 4.35 0 c2.35 0 4.65 -0.15 5.10 -0.30 1.20 -0.45 0.95 -2.10 -0.95 -5.90 -1.70 -3.35 -1.75 -3.55 -1.75 -9.50 0 -7.20 -0.40 -8.75 -2.90 -12.05 -4.80 -6.35 -12.65 -8.65 -19.15 -5.65 -3.45 1.60 -6.55 4.35 -8.35 7.35 -1.25 2.10 -1.35 2.80 -1.60 9.60 -0.25 7.20 -0.25 7.30 -2.10 10.85 -1.05 1.95 -1.90 3.70 -1.90 3.80 0 0.15 0.35 0.60 0.80 1 0.60 0.60 1.85 0.80 5.35 0.80 l4.60 0 0.95 2.25 c0.90 2.25 2.90 4.20 5.30 5.20 2.05 0.85 5.75 0.35 7.95 -1.10z m152.15 -1.10 c2.90 -2.15 2.90 -2.30 2.90 -18.75 0 -16.65 -0.05 -16.90 -3.20 -18.80 -1.45 -0.90 -2.70 -0.95 -18.75 -0.90 -16.10 0.10 -17.25 0.15 -18.50 1.05 -2.90 2.15 -3.05 3.05 -3.05 18.55 0 14.90 0.20 16.30 2.40 18.25 0.55 0.50 1.65 1.10 2.40 1.35 0.80 0.25 8.90 0.40 17.95 0.35 15.65 -0.10 16.55 -0.15 17.85 -1.10z"/>
  <path d="M83.75 68.30 c-0.70 -0.70 -1.30 -2.05 -1.50 -3.35 -3.05 -20.45 -3.15 -21.20 -2.30 -22 0.45 -0.45 4 -2.85 7.90 -5.40 l7.10 -4.65 7.15 4.65 c3.95 2.50 7.45 4.90 7.85 5.20 0.55 0.55 0.40 2.40 -0.90 11.70 -0.85 6.05 -1.55 11.25 -1.55 11.50 0 0.25 -0.60 1.15 -1.30 2 l-1.30 1.55 -9.95 0 c-9.85 0 -10 0 -11.20 -1.20z m14.60 -9.30 c3.85 -1.75 5.50 -6.20 3.70 -10.20 -3.10 -7.10 -13.40 -5.65 -14.85 2.10 -0.35 1.85 0.85 5.50 2.20 6.75 2.70 2.45 5.60 2.90 8.95 1.35z"/>
  <path d="M91.90 55.55 c-3.35 -3 -1.40 -8.30 3.10 -8.30 4.50 0 6.45 5.30 3.10 8.30 -1 0.90 -2.15 1.45 -3.10 1.45 -0.95 0 -2.10 -0.55 -3.10 -1.45z"/>
  <path d="M229.70 65.30 c-2.65 -0.85 -6.30 -3.35 -7.90 -5.45 -6.45 -8.45 -4 -20 5.30 -25.10 2.40 -1.35 3.05 -1.50 7.40 -1.50 4.30 0 5.05 0.15 7.70 1.50 6.30 3.20 9.90 10.20 8.80 17.15 -1.60 9.95 -11.80 16.35 -21.30 13.40z"/>
  <path d="M371.20 68.80 c-1.35 -0.60 -3.70 -3.15 -3.70 -4 0 -0.15 2.70 -0.30 6.05 -0.30 l6 0 -0.90 1.55 c-1 1.80 -3.40 3.45 -4.90 3.45 -0.55 -0.05 -1.70 -0.35 -2.55 -0.70z"/>
  <path d="M358 61.40 c0 -0.10 0.55 -1.50 1.25 -3.15 1.05 -2.65 1.25 -3.80 1.25 -9.25 0.05 -7.50 0.60 -9.15 4.40 -12.55 3.05 -2.75 7 -4.20 9.95 -3.65 3.90 0.70 7.80 3.40 10.05 6.90 1.20 1.90 1.35 2.60 1.60 9.30 0.25 6 0.45 7.65 1.40 9.70 0.60 1.35 1.10 2.50 1.10 2.60 0 0.10 -6.95 0.20 -15.50 0.20 -8.50 0 -15.50 -0.05 -15.50 -0.10z"/>
  <path d="M495.20 67.40 c-1.95 -0.90 -2.20 -2.45 -2.20 -13.65 0 -5.90 0.10 -10.75 0.25 -10.75 0.15 0 3.35 2 7.15 4.40 3.75 2.45 7.90 5.05 9.15 5.75 2.70 1.60 1.95 1.90 13.20 -5.25 l7.50 -4.75 0.15 11.30 0.15 11.30 -1.30 1.15 c-1.30 1.10 -1.40 1.10 -17.15 1.05 -9.80 0 -16.25 -0.20 -16.90 -0.55z"/>
  <path d="M502.25 45.20 c-4.95 -3.15 -9.10 -5.95 -9.15 -6.25 -0.35 -0.95 0.40 -2.90 1.50 -3.95 1.05 -0.95 1.70 -1 17.25 -1 l16.20 0 1.20 1.25 c0.75 0.70 1.25 1.80 1.25 2.65 0 1.35 -0.70 1.90 -8.80 7.10 -4.80 3.10 -9.15 5.70 -9.60 5.80 -0.45 0.10 -4.90 -2.40 -9.85 -5.60z"/>
 </g>
</svg>